<svg
        xmlns="http://www.w3.org/2000/svg"
        width="40"
        height="40"
        viewBox="0 0 57 59"
        fill="none"
      >
        <g clip-path="url(#clip0_16_14)" filter="url(#filter0_d_16_14)">
          <g filter="url(#filter1_d_16_14)">
            <path
              d="M15.2809 17.013C15.5333 15.0926 18.127 12.4825 20.1854 12.7722L20.1821 12.769C22.1853 13.1353 23.7711 16.453 24.6652 17.9449C25.2988 19.0273 24.8874 20.124 24.2964 20.5867C23.4992 21.205 22.2526 22.0581 22.5142 22.9147C22.9792 24.4375 28.5 29.75 31.2154 31.2602C32.2431 31.8319 32.9884 30.3242 33.6249 29.5517C34.0873 28.9576 35.2279 28.6025 36.3502 29.189C38.0263 30.1283 39.6053 31.2199 41.0654 32.4488C41.7946 33.0353 41.9658 33.902 41.4605 34.8181C40.5705 36.4316 37.9965 38.5594 36.128 38.127C32.8646 37.372 19.6667 32.4487 15.4274 18.1858C15.189 17.511 15.249 17.2559 15.2809 17.013Z"
              fill="#FFAB36"
            />
          </g>
          <g filter="url(#filter2_d_16_14)">
            <path
              fill-rule="evenodd"
              clip-rule="evenodd"
              d="M28.5 48.875C25.7979 48.875 24.3029 48.596 21.875 47.8125L17.2252 50.0497C14.2886 51.4626 10.8334 49.4077 10.8334 46.2483V41.4375C6.07784 37.1705 4.20837 32.2505 4.20837 25.5C4.20837 12.5903 15.0841 2.125 28.5 2.125C41.9159 2.125 52.7917 12.5903 52.7917 25.5C52.7917 38.4096 41.9159 48.875 28.5 48.875ZM15.25 39.5894L13.8454 38.3291C10.1507 35.0141 8.62504 31.3078 8.62504 25.5C8.62504 14.9376 17.5234 6.375 28.5 6.375C39.4768 6.375 48.375 14.9376 48.375 25.5C48.375 36.0625 39.4768 44.625 28.5 44.625C26.3233 44.625 25.3024 44.4359 23.2794 43.7831L21.5404 43.2219L15.25 46.2483V39.5894Z"
              fill="#FFAB36"
            />
          </g>
        </g>
        <defs>
          <filter
            id="filter0_d_16_14"
            x="-2"
            y="0"
            width="61"
            height="59"
            filterUnits="userSpaceOnUse"
            color-interpolation-filters="sRGB"
          >
            <feFlood flood-opacity="0" result="BackgroundImageFix" />
            <feColorMatrix
              in="SourceAlpha"
              type="matrix"
              values="0 0 0 0 0 0 0 0 0 0 0 0 0 0 0 0 0 0 127 0"
              result="hardAlpha"
            />
            <feOffset dy="4" />
            <feGaussianBlur stdDeviation="2" />
            <feComposite in2="hardAlpha" operator="out" />
            <feColorMatrix
              type="matrix"
              values="0 0 0 0 0 0 0 0 0 0 0 0 0 0 0 0 0 0 0.25 0"
            />
            <feBlend
              mode="normal"
              in2="BackgroundImageFix"
              result="effect1_dropShadow_16_14"
            />
            <feBlend
              mode="normal"
              in="SourceGraphic"
              in2="effect1_dropShadow_16_14"
              result="shape"
            />
          </filter>
          <filter
            id="filter1_d_16_14"
            x="10.05"
            y="10.55"
            width="38.9"
            height="37.8338"
            filterUnits="userSpaceOnUse"
            color-interpolation-filters="sRGB"
          >
            <feFlood flood-opacity="0" result="BackgroundImageFix" />
            <feColorMatrix
              in="SourceAlpha"
              type="matrix"
              values="0 0 0 0 0 0 0 0 0 0 0 0 0 0 0 0 0 0 127 0"
              result="hardAlpha"
            />
            <feOffset dx="1" dy="4" />
            <feGaussianBlur stdDeviation="3.1" />
            <feComposite in2="hardAlpha" operator="out" />
            <feColorMatrix
              type="matrix"
              values="0 0 0 0 0 0 0 0 0 0 0 0 0 0 0 0 0 0 0.25 0"
            />
            <feBlend
              mode="normal"
              in2="BackgroundImageFix"
              result="effect1_dropShadow_16_14"
            />
            <feBlend
              mode="normal"
              in="SourceGraphic"
              in2="effect1_dropShadow_16_14"
              result="shape"
            />
          </filter>
          <filter
            id="filter2_d_16_14"
            x="-0.991626"
            y="-0.0749998"
            width="60.9834"
            height="60.7789"
            filterUnits="userSpaceOnUse"
            color-interpolation-filters="sRGB"
          >
            <feFlood flood-opacity="0" result="BackgroundImageFix" />
            <feColorMatrix
              in="SourceAlpha"
              type="matrix"
              values="0 0 0 0 0 0 0 0 0 0 0 0 0 0 0 0 0 0 127 0"
              result="hardAlpha"
            />
            <feOffset dx="1" dy="4" />
            <feGaussianBlur stdDeviation="3.1" />
            <feComposite in2="hardAlpha" operator="out" />
            <feColorMatrix
              type="matrix"
              values="0 0 0 0 0 0 0 0 0 0 0 0 0 0 0 0 0 0 0.25 0"
            />
            <feBlend
              mode="normal"
              in2="BackgroundImageFix"
              result="effect1_dropShadow_16_14"
            />
            <feBlend
              mode="normal"
              in="SourceGraphic"
              in2="effect1_dropShadow_16_14"
              result="shape"
            />
          </filter>
          <clipPath id="clip0_16_14">
            <rect
              width="53"
              height="51"
              fill="white"
              transform="translate(2)"
            />
          </clipPath>
        </defs>
      </svg>